<svg width="302" height="38" xmlns="http://www.w3.org/2000/svg" xmlns:xlink="http://www.w3.org/1999/xlink" xml:space="preserve" overflow="hidden"><defs><clipPath id="clip0"><rect x="59" y="45" width="301" height="37"/></clipPath><clipPath id="clip1"><rect x="59" y="45" width="302" height="37"/></clipPath><clipPath id="clip2"><rect x="59" y="45" width="302" height="37"/></clipPath></defs><g transform="translate(-58 -44)"><g><g clip-path="url(#clip0)"><g clip-path="url(#clip1)"><g clip-path="url(#clip2)"><path d="M286.681 173.476 293.82 173.476 293.82 170.324 290.571 170.324 290.571 152.588 293.82 152.588 293.82 149.416 286.681 149.416 286.681 152.986C284.612 150.262 281.376 148.677 277.955 148.713 271.132 148.713 266.068 154.19 266.068 161.436 266.068 168.682 271.132 174.154 277.955 174.154 281.376 174.189 284.612 172.605 286.681 169.881ZM262.682 167.025 258.781 167.025C257.389 169.437 254.88 170.926 251.305 170.926 245.874 170.926 242.952 167.627 242.58 162.767L263.238 162.767 263.238 161.048C263.238 153.71 258.551 148.743 251.167 148.743 243.783 148.743 238.587 154.006 238.587 161.456 238.587 168.907 243.737 174.175 251.167 174.175 256.598 174.175 260.775 171.436 262.682 167.035M211.988 153.19 211.988 141.91 215.466 141.91 215.466 138.661 204.491 138.661 204.491 141.91 207.974 141.91 207.974 170.228 204.491 170.228 204.491 173.476 215.491 173.476 215.491 170.228 211.988 170.228 211.988 156.347 229.443 156.347 229.443 170.228 225.96 170.228 225.96 173.476 236.96 173.476 236.96 170.228 233.482 170.228 233.482 141.91 236.96 141.91 236.96 138.661 225.96 138.661 225.96 141.91 229.443 141.91 229.443 153.19ZM331.47 170.324 328.221 170.324 328.221 159.549C328.221 154.536 330.771 152.032 335.279 152.032 339.318 152.032 341.908 154.536 341.908 159.549L341.908 170.324 338.655 170.324 338.655 173.481 349.058 173.481 349.058 170.324 345.805 170.324 345.805 159.549C345.805 153.562 342.235 148.733 335.733 148.733 332.342 148.733 329.838 150.033 328.211 152.124L328.211 138.661 321.072 138.661 321.072 141.818 324.33 141.818 324.33 170.324 321.082 170.324 321.082 173.481 331.47 173.481ZM270.061 161.456C270.061 155.974 273.544 152.032 278.465 152.032 283.386 152.032 286.823 156.071 286.823 161.456 286.823 166.841 283.432 170.88 278.465 170.88 273.498 170.88 270.061 166.933 270.061 161.456M251.167 151.966C256.267 151.966 258.919 155.592 259.327 159.615L242.58 159.615C243.044 155.204 246.017 151.966 251.167 151.966M314.024 167.265 314.024 152.588 318.899 152.588 318.899 149.416 314.024 149.416 314.024 143.297 310.128 143.297 310.128 149.416 306.411 149.416 306.411 152.573 310.128 152.573 310.128 167.428C310.128 171.701 312.03 173.787 316.533 173.787 317.333 173.781 318.128 173.671 318.899 173.461L318.899 170.324C318.243 170.452 317.575 170.515 316.905 170.513 314.952 170.513 314.024 169.814 314.024 167.265M304.371 173.807C305.11 173.802 305.845 173.692 306.553 173.481L306.553 170.324C305.989 170.45 305.413 170.514 304.835 170.513 303.162 170.513 302.372 169.631 302.372 167.03L302.372 138.661 295.232 138.661 295.232 141.818 298.486 141.818 298.486 167.209C298.486 171.528 300.204 173.802 304.381 173.802" fill="#000000" fill-rule="nonzero" fill-opacity="1" transform="matrix(1 0 0 1.00729 1.55885 -93.686)"/><path d="M181.069 162.568C181.625 165.169 183.109 166.097 186.169 166.097 188.861 166.097 190.345 165.123 190.345 163.588 190.345 161.405 188.351 161.222 184.226 160.156 179.397 158.901 176.286 157.831 174.848 156.811 172.155 154.909 170.855 152.221 170.855 148.779 170.855 142.048 176.148 137.687 185.383 137.687 194.343 137.687 199.662 141.629 200.238 148.641L189.703 148.641C189.33 146.55 187.892 145.582 185.2 145.582 182.834 145.582 181.671 146.372 181.671 147.948 181.671 149.809 183.481 150.13 186.821 151.007 191.141 152.124 194.578 152.818 196.76 154.307 199.82 156.347 201.217 158.856 201.217 162.43 201.217 169.998 195.781 174.404 185.71 174.404 176.378 174.404 170.921 169.998 170.202 162.568Z" fill="#CC0000" fill-rule="nonzero" fill-opacity="1" transform="matrix(1 0 0 1.00729 1.55885 -93.686)"/><path d="M140.074 159.921C139.472 169.07 133.445 174.404 123.455 174.404 112.358 174.404 105.56 167.351 105.56 156.071 105.56 144.694 112.384 137.687 123.205 137.687 133.276 137.687 139.217 142.787 139.87 151.798L129.258 151.798C128.932 148.269 126.938 146.413 123.363 146.413 118.998 146.413 116.815 149.615 116.815 156.071 116.815 162.384 119.181 165.679 123.684 165.679 127.075 165.679 129.212 163.639 129.538 159.921Z" fill="#CC0000" fill-rule="nonzero" fill-opacity="1" transform="matrix(1 0 0 1.00729 1.55885 -93.686)"/><path d="M80.2667 0.974011 91.6437 0.974011 97.4929 23.4426 103.76 0.974011 114.714 0.974011 103.016 35.7477 91.9191 35.7477 80.2667 0.974011Z" fill="#CC0000" fill-rule="nonzero" fill-opacity="1" transform="matrix(1 0 0 1.00729 59 45.0053)"/><path d="M69.8636 137.733C68.4939 137.733 67.1813 138.285 66.2226 139.263L58.9302 146.556C56.919 148.57 56.919 151.833 58.9302 153.848L79.5527 174.404 100.134 153.827C102.148 151.814 102.149 148.55 100.135 146.536 100.135 146.536 100.135 146.536 100.134 146.535L92.8115 139.248C90.812 137.233 87.557 137.22 85.5421 139.22 85.5324 139.229 85.5233 139.239 85.5141 139.248L79.5527 145.25 73.5557 139.248C72.5919 138.271 71.2767 137.72 69.9044 137.718Z" fill="#CC0000" fill-rule="nonzero" fill-opacity="1" transform="matrix(1 0 0 1.00729 1.55885 -93.686)"/><path d="M354.928 173.629C352.957 173.671 351.324 172.108 351.282 170.137 351.24 168.166 352.804 166.533 354.775 166.491 356.746 166.449 358.378 168.012 358.42 169.984 358.42 170.009 358.421 170.034 358.421 170.059 358.494 171.956 357.016 173.553 355.119 173.627 355.056 173.629 354.991 173.63 354.928 173.629ZM354.928 167.107C353.398 167.107 352.179 168.32 352.179 170.059 352.179 171.681 353.229 173.007 354.928 173.007 356.457 173.007 357.656 171.803 357.656 170.059 357.656 168.315 356.457 167.107 354.928 167.107ZM354.219 172.099 353.571 172.099 353.571 168.147 355.07 168.147C356.024 168.147 356.514 168.484 356.514 169.284 356.547 169.847 356.119 170.33 355.557 170.363 355.535 170.365 355.515 170.365 355.494 170.365L356.605 172.099 355.866 172.099 354.846 170.411 354.234 170.411ZM354.948 169.855C355.432 169.855 355.861 169.809 355.861 169.238 355.861 168.759 355.397 168.703 355.004 168.703L354.219 168.703 354.219 169.855Z" fill="#000000" fill-rule="nonzero" fill-opacity="1" transform="matrix(1 0 0 1.00729 1.55885 -93.686)"/></g></g></g></g></g></svg>